# AST/ASF file generated using VICON BodyLanguage
# -----------------------------------------------
:version 1.10
:name VICON
:units
  mass 1.0
  length 0.45
  angle deg
:documentation
   .ast/.asf automatically generated from VICON data using
   VICON BodyBuilder and BodyLanguage model FoxedUp or BRILLIANT.MOD
:root
   order TX TY TZ RX RY RZ
   axis XYZ
   position 0 0 0  
   orientation 0 0 0 
:bonedata
  begin
     id 1 
     name lhipjoint
     direction 0.635376 -0.686425 0.353719 
     length 2.47244 
     axis 0 0 0  XYZ
  end
  begin
     id 2 
     name lfemur
     direction 0.34202 -0.939693 0  
     length 7.25268  
     axis 0 0 20  XYZ
    dof rx ry rz
    limits (-160.0 20.0)
           (-70.0 70.0)
           (-60.0 70.0)
  end
  begin
     id 3 
     name ltibia
     direction 0.34202 -0.939693 0   
     length 7.6767   
     axis 0 0 20   XYZ
    dof rx
    limits (-10.0 170.0)
  end
  begin
     id 4 
     name lfoot
     direction 0.0803374 -0.220725 0.972022   
     length 2.22945   
     axis -90 7.62852e-016 20   XYZ
    dof rx rz
    limits (-45.0 90.0)
           (-70.0 20.0)
  end
  begin
     id 5 
     name ltoes
     direction 1.53579e-011 -4.21994e-011 1   
     length 1.11848   
     axis -90 7.62852e-016 20   XYZ
    dof rx
    limits (-90.0 20.0)
  end
  begin
     id 6 
     name rhipjoint
     direction -0.664428 -0.664335 0.342336   
     length 2.55466  
     axis 0 0 0  XYZ 
  end
  begin
     id 7 
     name rfemur
     direction -0.34202 -0.939693 0   
     length 6.83172   
     axis 0 0 -20   XYZ
    dof rx ry rz
    limits (-160.0 20.0)
           (-70.0 70.0)
           (-70.0 60.0)
  end
  begin
     id 8 
     name rtibia
     direction -0.34202 -0.939693 0   
     length 7.62692   
     axis 0 0 -20   XYZ
    dof rx
    limits (-10.0 170.0)
 end
 begin
     id 9 
     name rfoot
     direction -0.0949276 -0.260811 0.960711   
     length 2.19684  
     axis -90 -7.62852e-016 -20   XYZ
    dof rx rz
    limits (-45.0 90.0)
           (-20.0 70.0)
  end
  begin
     id 10 
     name rtoes
     direction -1.53543e-011 -4.2183e-011 1   
     length 1.09848   
     axis -90 -7.62852e-016 -20   XYZ
    dof rx
    limits (-90.0 20.0)
  end
  begin
     id 11 
     name lowerback
     direction 0.0118782 0.999815 -0.0151555   
     length 2.15772   
     axis 0 0 0   XYZ
    dof rx ry rz
    limits (-20.0 45.0)
           (-30.0 30.0)
           (-30.0 30.0)
  end
  begin
     id 12 
     name upperback
     direction 0.00130825 0.999065 0.0432113   
     length 2.14863   
     axis 0 0 0   XYZ
    dof rx ry rz
    limits (-20.0 45.0)
           (-30.0 30.0)
           (-30.0 30.0)
  end
  begin
     id 13 
     name thorax
     direction -0.00347005 0.998773 0.0494011   
     length 2.14936   
     axis 0 0 0   XYZ
    dof rx ry rz
    limits (-20.0 45.0)
           (-30.0 30.0)
           (-30.0 30.0)
  end
  begin
     id 14 
     name lowerneck
     direction -0.0262159 0.99424 0.103921   
     length 1.69373   
     axis 0 0 0   XYZ
    dof rx ry rz
    limits (-20.0 45.0)
           (-30.0 30.0)
           (-30.0 30.0)
  end
  begin
     id 15 
     name upperneck
     direction 0.0353511 0.977394 -0.20845   
     length 1.70857   
     axis 0 0 0   XYZ
    dof rx ry rz
    limits (-20.0 45.0)
           (-30.0 30.0)
           (-30.0 30.0)
  end
  begin
     id 16
     name head
     direction 0.0139214 0.996594 -0.0812836  
     length 1.72777  
     axis 0 0 0   XYZ
    dof rx ry rz
    limits (-20.0 45.0)
           (-30.0 30.0)
           (-30.0 30.0)
  end
  begin
     id 17 
     name lclavicle
     direction 0.841247 0.537205 -0.0609508  
     length 3.55371  
     axis 0 0 0   XYZ
    dof ry rz
    limits (-20.0 10.0)
           (0.0 20.0)
  end
  begin
     id 18 
     name lhumerus
     direction 1 -4.48964e-011 1.60116e-018   
     length 4.91377   
     axis -180 -30 -90   XYZ
    dof rx ry rz
    limits (-60.0 90.0)
           (-90.0 90.0)
           (-90.0 90.0)
  end
  begin
     id 19
     name lradius
     direction 1 -4.48989e-011 -8.93847e-027   
     length 3.00291   
     axis -180 -30 -90   XYZ
    dof rx
    limits (-10.0 170.0)
  end
  begin
     id 20
     name lwrist
     direction 1 -4.48932e-011 -7.31504e-027   
     length 1.50145   
     axis 5.74121e-015 90 90   XYZ
    dof ry
    limits (-180.0 0.0)
 end
  begin
     id 21 
     name lhand
     direction 1 -4.48971e-011 -1.46301e-026   
     length 0.450922   
     axis 9.33524e-015 90 90   XYZ
    dof rx rz
    limits (-90.0 90.0)
           (-45.0 45.0)
  end
  begin
     id 22 
     name lfingers
     direction 1 -4.49039e-011 -2.92602e-026   
     length 0.363545   
     axis 1.86705e-014 90 90   XYZ
    dof rx
    limits (0.0 90.0)
  end
  begin
     id 23
     name lthumb
     direction 0.707107 -6.34941e-011 0.707107   
     length 0.52198   
     axis -90 45 2.85299e-015   XYZ
    dof rx rz
    limits (-45.0 45.0)
           (-45.0 45.0)
  end
  begin
     id 24 
     name rclavicle
     direction -0.825079 0.56158 -0.0622297   
     length 3.39909  
     axis 0 0 0   XYZ 
    dof ry rz
    limits (-10.0 20.0)
           (-20.0 0.0)
  end
  begin
     id 25 
     name rhumerus
     direction -1 -4.48965e-011 1.61691e-027  
     length 4.86725   
     axis -180 30 90   XYZ
    dof rx ry rz
    limits (-90.0 60.0)
           (-90.0 90.0)
           (-90.0 90.0)
  end
  begin
     id 26 
     name rradius
     direction -1 -4.48964e-011 -2.25776e-027   
     length 3.17144   
     axis -180 30 90   XYZ
    dof rx
    limits (-10.0 170.0)
  end
  begin
     id 27 
     name rwrist
     direction -1 -4.48961e-011 -7.31504e-027   
     length 1.58572   
     axis 5.74121e-015 -90 -90   XYZ
    dof ry
    limits (-180.0 0.0)
  end
  begin
     id 28
     name rhand
     direction -1 -4.49013e-011 -1.46301e-026   
     length 0.419368   
     axis 9.33524e-015 -90 -90   XYZ
    dof rx rz
    limits (-90.0 90.0)
           (-45.0 45.0)
  end
  begin
     id 29
     name rfingers
     direction -1 -4.489e-011 -2.92602e-026   
     length 0.338105   
     axis 1.86705e-014 -90 -90   XYZ
    dof rx
    limits (0.0 90.0)
  end
  begin
     id 30
     name rthumb
     direction -0.707107 -6.35022e-011 0.707107   
     length 0.485453   
     axis -90 -45 -2.85299e-015   XYZ
    dof rx rz
    limits (-45.0 45.0)
           (-45.0 45.0)
  end
:hierarchy
  begin
    root lhipjoint rhipjoint lowerback
    lhipjoint lfemur
    lfemur ltibia
    ltibia lfoot
    lfoot ltoes
    rhipjoint rfemur
    rfemur rtibia
    rtibia rfoot
    rfoot rtoes
    lowerback upperback
    upperback thorax
    thorax lowerneck lclavicle rclavicle
    lowerneck upperneck
    upperneck head
    lclavicle lhumerus
    lhumerus lradius
    lradius lwrist
    lwrist lhand lthumb
    lhand lfingers
    rclavicle rhumerus
    rhumerus rradius
    rradius rwrist
    rwrist rhand rthumb
    rhand rfingers
  end

#!OML:ASF H:\Swim 2\Project 1\Capture day 1\Session 1\male.ASF
:FULLY-SPECIFIED
:DEGREES
975
root 1.36035 13.0472 8.47552 74.9323 -3.80959 -3.70146
lowerback -3.50812 2.12897 -8.7087
upperback -3.18639 3.17561 6.80999
thorax -2.27764 1.93939 12.331
lowerneck -26.5684 -3.23102 -10.9978
upperneck 39.2692 -0.0291013 1.4946
head 19.913 -1.46276 2.67304
rclavicle -1.82882e-014 2.06736e-014
rhumerus 68.0178 4.91455 -6.78627
rradius 34.4404
rwrist -23.1965
rhand -24.8217 -3.6785
rfingers 7.12502
rthumb 1.68375 -33.6516
lclavicle -1.82882e-014 2.06736e-014
lhumerus 68.1208 -4.59319 52.1659
lradius 23.3977
lwrist 15.1811
lhand -39.4684 -12.1495
lfingers 7.12502
lthumb -12.4553 17.4593
rfemur -59.4877 -2.52196 22.1164
rtibia 84.7221
rfoot -2.75695 14.059
rtoes 4.82943
lfemur -57.0751 7.00487 -26.2371
ltibia 93.9826
lfoot -1.40294 -7.14832
ltoes 5.89674
976
root 1.36489 13.0745 8.45341 74.7443 -3.74673 -3.60067
lowerback -3.22613 2.09488 -8.60686
upperback -3.14292 3.10657 6.77387
thorax -2.36158 1.90246 12.2155
lowerneck -26.7228 -3.18235 -10.9609
upperneck 38.9546 0.0066335 1.56758
head 19.7492 -1.42066 2.70342
rclavicle 7.95139e-015 3.1408e-014
rhumerus 66.9652 5.49301 -6.39347
rradius 34.7678
rwrist -23.3563
rhand -24.5238 -4.46457
rfingers 7.12502
rthumb 1.97144 -34.4352
lclavicle 7.95139e-015 3.1408e-014
lhumerus 66.966 -5.00721 50.6522
lradius 23.6069
lwrist 16.0173
lhand -39.5204 -11.7382
lfingers 7.12502
lthumb -12.5055 17.8676
rfemur -59.6691 -3.25776 22.2797
rtibia 86.5646
rfoot -2.73478 13.951
rtoes 4.75771
lfemur -57.2342 7.1975 -26.0667
ltibia 95.6144
lfoot -1.92445 -6.91573
ltoes 4.20934
977
root 1.37012 13.1016 8.43202 74.5691 -3.6724 -3.50683
lowerback -2.96516 2.0681 -8.49509
upperback -3.10227 3.04957 6.74771
thorax -2.44051 1.87156 12.107
lowerneck -26.8615 -3.19906 -10.9989
upperneck 38.5476 -0.0692332 1.74202
head 19.5369 -1.41251 2.76766
rclavicle -1.43125e-014 -3.65764e-014
rhumerus 65.9042 6.10862 -5.99073
rradius 35.1134
rwrist -23.5344
rhand -24.0905 -5.3803
rfingers 7.12502
rthumb 2.38995 -35.3467
lclavicle -1.43125e-014 -3.65764e-014
lhumerus 65.7844 -5.58242 48.8943
lradius 23.9431
lwrist 17.1343
lhand -39.5719 -11.2893
lfingers 7.12502
lthumb -12.555 18.3135
rfemur -59.8289 -4.00623 22.422
rtibia 88.3791
rfoot -2.71654 13.9083
rtoes 4.51252
lfemur -57.3796 7.40784 -25.8714
ltibia 97.2075
lfoot -2.42723 -6.71104
ltoes 2.69854
978
root 1.3757 13.1281 8.41128 74.4015 -3.58907 -3.43568
lowerback -2.72613 2.05149 -8.36877
upperback -3.06067 3.00843 6.72938
thorax -2.51034 1.848 11.9998
lowerneck -26.9883 -3.25175 -11.0746
upperneck 38.1004 -0.202856 1.96381
head 19.307 -1.42288 2.846
rclavicle 1.59028e-014 2.22639e-014
rhumerus 64.8213 6.7876 -5.55178
rradius 35.4707
rwrist -23.666
rhand -23.6495 -6.25964
rfingers 7.12502
rthumb 2.81581 -36.2208
lclavicle 1.59028e-014 2.22639e-014
lhumerus 64.5817 -6.33355 46.8618
lradius 24.423
lwrist 18.5177
lhand -39.6367 -10.8412
lfingers 7.12502
lthumb -12.6175 18.7578
rfemur -59.953 -4.74428 22.5425
rtibia 90.1594
rfoot -2.70261 13.9388
rtoes 4.07988
lfemur -57.4964 7.65865 -25.6427
ltibia 98.7561
lfoot -2.87186 -6.59071
ltoes 1.66597
979
root 1.38135 13.154 8.39201 74.2326 -3.51994 -3.38834
lowerback -2.50389 2.04367 -8.24625
upperback -3.01096 2.98079 6.70949
thorax -2.56616 1.8302 11.8942
lowerneck -27.1158 -3.32385 -11.1663
upperneck 37.6379 -0.363311 2.20273
head 19.076 -1.44265 2.92758
rclavicle 2.62396e-014 -4.49253e-014
rhumerus 63.7163 7.52985 -5.12602
rradius 35.8435
rwrist -23.7616
rhand -23.206 -7.05181
rfingers 7.12502
rthumb 3.24419 -37.0069
lclavicle 2.62396e-014 -4.49253e-014
lhumerus 63.3676 -7.2539 44.5666
lradius 25.0544
lwrist 20.1121
lhand -39.7109 -10.4438
lfingers 7.12502
lthumb -12.6891 19.1507
rfemur -60.0261 -5.46984 22.6144
rtibia 91.9002
rfoot -2.65373 14.0345
rtoes 3.64766
lfemur -57.5575 7.95665 -25.3992
ltibia 100.244
lfoot -3.30609 -6.54014
ltoes 0.906535
